<svg id="Capa_1" enable-background="new 0 0 512 512" height="512" viewBox="0 0 512 512" width="512" xmlns="http://www.w3.org/2000/svg"><g><path fill="#CCC" d="m0 405.322c0 25.275 20.563 45.839 45.839 45.839s45.839-20.563 45.839-45.839v-262.147h-91.678z"/><path fill="#CCC" d="m189.147 271h112.692v112.692h-112.692z"/><path fill="#CCC" d="m121.678 60.839v344.483c0 17.213-5.774 33.097-15.473 45.839h359.956c25.275 0 45.839-20.563 45.839-45.839v-344.483zm210.161 352.853h-172.692v-172.692h172.692zm144.559 0h-103.78v-30h103.78zm0-71.346h-103.78v-30h103.78zm0-71.346h-103.78v-30h103.78zm0-71.346h-319.118v-30h319.119v30zm0-71.346h-319.118v-30h319.119v30z"/></g></svg>