<?xml version="1.0" encoding="UTF-8" standalone="no"?>
<!-- Created with Inkscape (http://www.inkscape.org/) -->

<svg
   xmlns:dc="http://purl.org/dc/elements/1.1/"
   xmlns:cc="http://creativecommons.org/ns#"
   xmlns:rdf="http://www.w3.org/1999/02/22-rdf-syntax-ns#"
   xmlns:svg="http://www.w3.org/2000/svg"
   xmlns="http://www.w3.org/2000/svg"
   xmlns:sodipodi="http://sodipodi.sourceforge.net/DTD/sodipodi-0.dtd"
   xmlns:inkscape="http://www.inkscape.org/namespaces/inkscape"
   version="1.1"
   id="svg4518"
   width="599"
   height="599"
   viewBox="0 0 598.99999 599"
   sodipodi:docname="social.svg"
   inkscape:version="0.92.3 (2405546, 2018-03-11)">
  <metadata
     id="metadata4524">
    <rdf:RDF>
      <cc:Work
         rdf:about="">
        <dc:format>image/svg+xml</dc:format>
        <dc:type
           rdf:resource="http://purl.org/dc/dcmitype/StillImage" />
        <dc:title></dc:title>
      </cc:Work>
    </rdf:RDF>
  </metadata>
  <defs
     id="defs4522" />
  <sodipodi:namedview
     pagecolor="#ffffff"
     bordercolor="#666666"
     borderopacity="1"
     objecttolerance="10"
     gridtolerance="10"
     guidetolerance="10"
     inkscape:pageopacity="0"
     inkscape:pageshadow="2"
     inkscape:window-width="1920"
     inkscape:window-height="1051"
     id="namedview4520"
     showgrid="false"
     inkscape:zoom="1.0369231"
     inkscape:cx="191.41569"
     inkscape:cy="322.20334"
     inkscape:window-x="1911"
     inkscape:window-y="-9"
     inkscape:window-maximized="1"
     inkscape:current-layer="svg4518" />
  <g
     id="g4528"
     transform="translate(-1.8776054,14.861929)"
     style="fill:#cccccc;fill-opacity:0.97607655;stroke:none;stroke-opacity:1">
    <path
       style="fill:#cccccc;fill-opacity:0.97607655;stroke:none;stroke-width:1.17073166;stroke-opacity:1"
       d="m 2.2813095,445.60091 0.3498401,-40.16215 4.3134267,-8.72375 C 20.126843,370.05437 59.854077,346.72993 116.36286,332.47396 c 54.98447,-13.87142 97.84667,-13.88784 152.67085,-0.0584 53.90283,13.59698 91.28337,34.54444 107.40884,60.19023 6.7074,10.66737 7.23244,14.72306 7.24786,55.98661 l 0.0139,37.17069 H 192.81789 1.9314695 Z m 434.9930705,-1.6915 c -0.52891,-45.52079 -1.06509,-49.77969 -8.33325,-66.19092 -7.27925,-16.43624 -24.94693,-37.78769 -39.66425,-47.93435 -3.05215,-2.10426 -5.55459,-4.15962 -5.56097,-4.56745 -0.0234,-1.5001 5.597,-2.36614 19.52479,-3.00849 40.34841,-1.86084 99.23259,10.64807 139.52868,29.6404 26.99948,12.7254 45.55083,28.19848 53.79222,44.86641 l 4.31343,8.72375 0.34984,40.16215 0.34983,40.16216 H 519.66768 437.76066 Z M 175.27101,266.26079 c -15.4645,-3.08404 -29.64575,-10.74376 -40.85192,-22.06538 -16.88814,-17.06209 -24.234,-36.79265 -23.17147,-62.23721 0.92466,-22.14321 8.29311,-39.37126 23.22586,-54.304 9.24833,-9.24833 19.34568,-15.4616 32.0601,-19.72777 8.3445,-2.79989 11.15323,-3.14771 25.7561,-3.18955 13.95129,-0.04 17.69683,0.35859 25.17073,2.67844 21.34195,6.62439 39.17007,21.60226 48.55806,40.79487 11.76204,24.04607 11.69988,50.93359 -0.17411,75.30899 -4.44819,9.13141 -7.11506,12.81917 -14.9009,20.605 -7.7927,7.79271 -11.46553,10.44754 -20.605,14.89395 -17.52636,8.52665 -36.26847,10.99168 -55.06745,7.24266 z m 217.21378,-0.0548 c -4.50731,-0.96972 -13.2,-4.20115 -19.31707,-7.18095 -28.80836,-14.03338 -46.1202,-44.47854 -44.13013,-77.60867 0.80914,-13.47039 2.99168,-22.0471 8.45012,-33.2062 9.38799,-19.19261 27.21611,-34.17048 48.55806,-40.79487 7.4739,-2.31985 11.21944,-2.71842 25.17073,-2.67844 14.60286,0.0418 17.4116,0.38966 25.7561,3.18955 12.71442,4.26617 22.81177,10.47944 32.0601,19.72777 9.24833,9.24833 15.4616,19.34568 19.72777,32.0601 2.79989,8.3445 3.14771,11.15324 3.18956,25.7561 0.0399,13.95129 -0.3586,17.69683 -2.67845,25.17073 -8.28482,26.69138 -29.44823,47.29127 -56.01438,54.52287 -9.83857,2.67817 -30.6905,3.21108 -40.77241,1.04201 z"
       id="path4542"
       inkscape:connector-curvature="0" />
    <path
       style="fill:#cccccc;fill-opacity:0.97607655;stroke:none;stroke-width:1.17073166;stroke-opacity:1"
       d="m 2.2685145,445.63686 0.3626351,-40.12619 3.9535549,-8.02678 C 23.297496,363.55241 83.134168,335.01096 160.67992,323.98216 c 13.63326,-1.93897 50.87559,-1.89504 64.39025,0.076 50.66114,7.38845 92.70887,21.34796 122.92682,40.81073 17.03602,10.97255 31.21738,28.49615 34.46647,42.58945 0.65914,2.85916 1.19629,21.34499 1.21222,41.71942 l 0.0286,36.58533 H 192.80509 1.9058794 Z M 437.2215,443.32405 c -0.52981,-43.58755 -0.78625,-46.2183 -5.85473,-60.06186 -6.95198,-18.98796 -20.86445,-37.12321 -39.93079,-52.05075 l -8.07319,-6.32073 3.39026,-1.11539 c 5.02255,-1.65241 43.92552,-1.50323 56.0732,0.21502 40.26292,5.69505 82.68786,18.28512 108.29268,32.13705 22.2516,12.03787 38.65851,26.85216 45.80255,41.3565 l 3.95355,8.02678 0.36263,40.12619 0.36264,40.12621 H 519.66882 437.73735 Z M 178.54926,266.87833 c -17.22213,-3.14988 -31.31181,-10.51711 -43.7345,-22.86796 -16.94158,-16.84361 -24.93508,-38.29052 -23.54604,-63.17503 1.2323,-22.07627 7.96527,-37.12274 23.61421,-52.77169 15.64895,-15.64894 30.69542,-22.38191 52.77169,-23.61421 16.04577,-0.89567 28.17288,1.56201 42.6584,8.64515 9.11761,4.45833 12.77644,7.11568 20.51662,14.90089 10.41129,10.47185 16.1081,20.02361 20.66317,34.64565 2.30737,7.40681 2.72062,11.16152 2.64142,24 -0.0811,13.14341 -0.51531,16.49712 -3.18317,24.58537 -4.29962,13.0353 -10.53313,23.18882 -20.1248,32.78048 -15.13167,15.13167 -32.6072,22.65715 -54.43902,23.44305 -6.76098,0.24338 -14.78807,-0.0139 -17.83798,-0.5717 z m 217.28724,-0.0698 c -16.24585,-2.93281 -31.17618,-10.82117 -43.15658,-22.80157 -9.59167,-9.59166 -15.82518,-19.74518 -20.1248,-32.78048 -2.66786,-8.08825 -3.10209,-11.44196 -3.18317,-24.58537 -0.0793,-12.83848 0.33404,-16.59319 2.64141,-24 4.55508,-14.62204 10.25189,-24.1738 20.66317,-34.64565 16.84361,-16.94158 38.29051,-24.93508 63.17502,-23.54604 22.07628,1.2323 37.12275,7.96527 52.77169,23.61421 15.64895,15.64895 22.38192,30.69542 23.61421,52.77169 2.18453,39.13546 -20.5779,72.17666 -57.60632,83.61949 -9.36436,2.89385 -29.15226,4.0944 -38.79463,2.35371 z"
       id="path4540"
       inkscape:connector-curvature="0" />
    <path
       style="fill:#cccccc;fill-opacity:0.97607655;stroke:none;stroke-width:1.17073166;stroke-opacity:1"
       d="m 2.0457838,448.40396 c 0,-33.37784 0.2363688,-38.11856 2.2180213,-44.48562 3.0275755,-9.72762 8.1223679,-17.26508 17.9125749,-26.50067 26.183058,-24.69976 74.363411,-43.46293 135.57671,-52.79844 20.11315,-3.06741 51.90479,-2.81302 73.7561,0.59017 74.5202,11.60604 131.61498,39.65286 147.20986,72.31429 l 4.39989,9.21499 0.36348,39.5122 0.36346,39.51219 H 192.94584 2.0457838 Z M 437.53263,446.25088 c -0.0222,-34.72512 -0.30033,-40.75586 -2.29512,-49.77735 -5.29916,-23.96573 -20.11085,-46.58962 -41.78226,-63.81965 l -9.88124,-7.85616 4.4554,-1.12497 c 7.42395,-1.87451 42.76047,-1.27861 57.72367,0.97344 60.79195,9.14953 109.38537,28.06389 135.57672,52.77148 9.7902,9.23559 14.885,16.77305 17.91257,26.50067 1.98165,6.36706 2.21802,11.10778 2.21802,44.48562 v 37.35911 h -81.95121 -81.95122 l -0.0253,-39.51219 z M 179.59865,266.78049 c -17.81796,-2.99059 -32.11301,-10.26209 -44.77049,-22.77351 -24.90187,-24.61451 -30.82472,-62.43427 -14.93024,-95.33562 4.41072,-9.13012 6.99896,-12.7071 14.94228,-20.65044 7.94333,-7.94332 11.52032,-10.53156 20.65044,-14.94228 32.90135,-15.894479 70.72111,-9.97163 95.33562,14.93024 13.56803,13.72643 20.33159,27.88509 23.11501,48.38835 2.28973,16.86662 -2.01613,37.45214 -11.03213,52.74267 -4.98936,8.46159 -18.48837,21.9606 -26.94996,26.94996 -16.35322,9.64261 -38.06611,13.76119 -56.36053,10.69063 z m 217.12509,-0.0932 c -8.88449,-1.47569 -21.4425,-6.03693 -29.17674,-10.59739 -8.46159,-4.98936 -21.96061,-18.48837 -26.94996,-26.94997 -9.016,-15.29052 -13.32186,-35.87604 -11.03213,-52.74266 2.78341,-20.50326 9.54698,-34.66193 23.11501,-48.38836 24.61451,-24.90187 62.43427,-30.824712 95.33561,-14.93023 9.13013,4.41072 12.70711,6.99896 20.65045,14.94228 7.94332,7.94333 10.53156,11.52032 14.94228,20.65044 12.5113,25.89821 11.73065,54.11481 -2.18954,79.14048 -5.49934,9.88669 -18.39374,22.85774 -28.64125,28.81151 -16.24269,9.43694 -37.18787,13.19744 -56.05373,10.0639 z"
       id="path4538"
       inkscape:connector-curvature="0" />
    <path
       style="fill:#cccccc;fill-opacity:0.97607655;stroke:none;stroke-width:1.17073166;stroke-opacity:1"
       d="m 2.2676781,446.25088 0.3634715,-39.5122 4.3998911,-9.21499 C 18.891755,372.68297 53.954645,350.6567 104.90998,336.03682 c 51.47846,-14.76998 92.31711,-17.13526 141.10468,-8.17246 38.95826,7.15706 76.56419,20.84207 101.06162,36.77691 12.0233,7.82078 25.34037,20.89731 29.85779,29.31848 6.16367,11.49 6.77024,16.48545 6.77024,55.75661 v 36.04671 H 192.80425 1.9042066 Z M 437.55796,446.03474 c 0,-42.11566 -0.59009,-48.32189 -5.97157,-62.80476 -7.27458,-19.57768 -23.42484,-40.36023 -41.39027,-53.26203 -2.9266,-2.10172 -5.32108,-4.22655 -5.32108,-4.72185 0,-2.94659 36.14291,-3.65039 56.19512,-1.09426 38.4489,4.90122 78.93567,16.58165 107.70731,31.07355 22.84431,11.50638 40.45009,27.11919 47.69767,42.2983 l 4.39989,9.21499 0.36348,39.5122 0.36346,39.51219 h -82.022 -82.02201 z M 180.12178,266.71014 c -15.87296,-2.40239 -31.32211,-9.68734 -43.20961,-20.3752 -7.21271,-6.48486 -16.66503,-20.25004 -19.96874,-29.08 -17.306107,-46.25471 5.13424,-94.24518 51.15115,-109.39081 12.71041,-4.1834 33.96907,-4.3919 47.56863,-0.46654 28.3701,8.18872 49.59686,30.09753 56.35945,58.17037 2.37298,9.85071 2.63235,28.77333 0.52854,38.56057 -6.48454,30.16703 -31.3815,55.26642 -60.94445,61.43999 -8.67159,1.81087 -23.50857,2.34884 -31.48497,1.14162 z m 218.80204,0.0836 c -44.439,-6.13352 -75.14611,-46.7992 -69.05398,-91.4487 2.43046,-17.81296 9.14029,-32.63729 20.48212,-45.25215 6.48486,-7.21272 20.25004,-16.66504 29.07999,-19.96875 46.25472,-17.306106 94.24519,5.13424 109.39082,51.15115 4.18341,12.71041 4.3919,33.96907 0.46653,47.56863 -11.38959,39.45964 -49.10342,63.64487 -90.36548,57.94982 z"
       id="path4536"
       inkscape:connector-curvature="0" />
    <path
       style="fill:#cccccc;fill-opacity:0.97607655;stroke:none;stroke-width:1.17073166;stroke-opacity:1"
       d="m 2.0596791,449.17771 c 0.010347,-27.24357 0.4237951,-38.12485 1.61919,-42.61441 7.8305799,-29.40951 46.8213509,-55.80323 106.0671609,-71.79921 52.06634,-14.05757 94.99745,-15.5942 144.37963,-5.16777 63.60032,13.42841 110.15396,38.73707 124.24971,67.54775 4.56651,9.33361 5.31475,16.97816 5.32216,54.3751 l 0.007,34.2439 H 192.87504 2.0457838 Z M 438.33845,484.98258 c -0.42927,-0.42926 -0.78049,-18.57218 -0.78049,-40.31759 0,-41.60151 -0.5219,-47.04148 -5.91823,-61.68775 -6.9581,-18.88506 -23.42459,-40.33479 -40.17728,-52.33611 -3.5953,-2.57561 -6.54828,-5.02861 -6.56216,-5.45112 -0.0489,-1.48926 12.45223,-2.53389 28.65767,-2.39471 50.88429,0.43705 114.89406,18.15032 151.28376,41.86441 12.2845,8.00545 25.44405,20.97534 30.04389,29.6109 6.098,11.44816 6.54581,15.19577 6.56089,54.9071 l 0.0139,36.58536 h -81.17072 c -44.64391,0 -81.52196,-0.35122 -81.95122,-0.78049 z M 183.50919,266.85326 c -31.45114,-3.28541 -57.15967,-23.40116 -67.41258,-52.74723 -6.11767,-17.51011 -6.32189,-36.6201 -0.58752,-54.97709 7.03937,-22.53459 27.90454,-43.39976 50.43913,-50.43913 40.1298,-12.53577 81.80566,4.0176 99.39525,39.47914 11.65556,23.49818 11.48669,53.61893 -0.42772,76.28738 -15.44757,29.39069 -47.26823,45.96305 -81.40656,42.39693 z m 217.53387,-0.10373 c -21.2375,-2.37793 -40.17947,-12.46706 -53.34668,-28.4142 -23.76187,-28.77861 -24.28419,-73.60694 -1.20627,-103.52787 23.84414,-30.91436 71.4869,-39.5756 106.26942,-19.31931 9.72111,5.66129 22.77789,18.71808 28.43919,28.43919 20.25629,34.78252 11.59504,82.42528 -19.31931,106.26942 -16.5875,12.79387 -39.27532,18.96694 -60.83635,16.55277 z"
       id="path4534"
       inkscape:connector-curvature="0" />
    <path
       style="fill:#cccccc;fill-opacity:0.97607655;stroke:none;stroke-width:1.17073166;stroke-opacity:1"
       d="M 2.2879438,446.83977 C 2.6814626,409.50516 2.8082023,407.63381 5.3799226,401.18588 18.730241,367.71329 72.689441,339.60199 149.12017,326.30101 c 12.84427,-2.23524 19.31137,-2.62292 43.75487,-2.62292 24.48095,0 30.91255,0.38667 43.90244,2.63936 61.69405,10.69893 110.82721,32.13784 132.62087,57.86816 12.99526,15.34267 14.55876,23.05782 14.06055,69.38234 l -0.33996,31.60975 -190.62067,0.29621 -190.6206646,0.2962 z M 438.7084,452.6899 c -0.0212,-34.47305 -1.01943,-49.3887 -4.08786,-61.07712 -2.71549,-10.34403 -10.04531,-25.12629 -17.26196,-34.81266 -6.85503,-9.20101 -20.9105,-23.18257 -28.0853,-27.93762 -2.41024,-1.59737 -4.38585,-3.26151 -4.39025,-3.6981 -0.0335,-3.32555 48.2145,-2.42835 70.12743,1.30407 75.09768,12.79132 129.80943,41.35505 143.1158,74.71741 2.57169,6.44789 2.69846,8.31941 3.09194,45.65036 l 0.41032,38.92683 H 520.17861 438.72869 Z M 170.88347,264.47295 c -38.78609,-10.16191 -63.77731,-47.9231 -58.73466,-88.74677 4.67779,-37.86991 32.52674,-65.71886 70.39665,-70.39665 41.06399,-5.07234 78.79754,20.08121 88.80139,59.19587 2.82485,11.04508 3.07248,30.43633 0.52657,41.2357 -6.8118,28.8947 -30.39834,52.48124 -59.29304,59.29304 -10.60539,2.50018 -31.02212,2.2156 -41.69691,-0.58119 z m 219.51716,0.52878 c -28.49033,-6.90233 -52.02129,-30.62259 -58.76787,-59.24063 -2.54591,-10.79937 -2.29829,-30.19062 0.52657,-41.2357 10.00384,-39.11466 47.73739,-64.26821 88.80139,-59.19587 37.8699,4.67779 65.71886,32.52674 70.39665,70.39665 5.07233,41.064 -20.08121,78.79754 -59.19587,88.80139 -10.80409,2.76322 -31.34955,2.99648 -41.76087,0.47416 z"
       id="path4532"
       inkscape:connector-curvature="0" />
    <path
       style="fill:#cccccc;fill-opacity:0.97607655;stroke:none;stroke-width:1.17073166;stroke-opacity:1"
       d="m 2.0546277,452.10454 c 0.00486,-18.5122 0.5571014,-37.03755 1.2271939,-41.16746 3.4826483,-21.46422 21.3969344,-40.00759 54.3737164,-56.28309 26.223641,-12.94253 56.022662,-22.08918 91.923012,-28.21524 21.06275,-3.59417 61.30454,-3.94421 81.93064,-0.71267 44.63674,6.99333 87.97712,21.66112 114.7317,38.82893 12.97413,8.32521 27.17575,22.99784 31.88566,32.94319 l 3.82166,8.06975 0.34984,40.09756 0.34983,40.09756 H 192.34683 2.0457838 Z M 438.71909,451.51917 c -0.006,-18.83415 -0.53615,-38.83921 -1.17968,-44.45569 -3.36156,-29.33792 -19.66963,-56.72382 -45.3473,-76.15104 -3.38049,-2.5576 -6.14634,-5.07179 -6.14634,-5.58708 0,-1.74045 15.6388,-2.62683 34.50671,-1.9558 41.3619,1.47101 88.98202,13.3608 125.29816,31.28443 32.97678,16.2755 50.89107,34.81887 54.37372,56.28309 0.67009,4.12991 1.22232,22.65526 1.22719,41.16746 l 0.009,33.65853 H 520.0947 438.72885 l -0.009,-34.2439 z M 171.80187,264.51632 c -14.99055,-3.9953 -25.09168,-9.84887 -36.43147,-21.11192 -16.33719,-16.22664 -23.22474,-33.24051 -23.25854,-57.45405 -0.0443,-31.75752 15.21289,-57.66556 42.36262,-71.93529 11.44516,-6.01551 23.42098,-8.74324 38.29515,-8.72247 15.19449,0.0212 24.55425,2.11147 37.52496,8.38027 8.03171,3.88175 11.80465,6.69848 19.92908,14.87826 11.60411,11.68317 17.30486,21.76104 21.25371,37.57266 3.49374,13.98921 2.69739,32.7285 -1.98638,46.74315 -7.88041,23.57956 -26.21399,41.90331 -49.86213,49.83543 -13.4467,4.51033 -34.68738,5.31593 -47.827,1.81396 z m 220.68292,0.60171 c -27.68557,-6.03849 -49.56344,-25.60466 -58.48856,-52.30844 -4.6639,-13.95429 -5.45481,-32.72203 -1.96744,-46.68581 3.94886,-15.81162 9.64961,-25.88949 21.25371,-37.57266 16.22664,-16.33719 33.24051,-23.22474 57.45405,-23.25853 31.75752,-0.0443 57.66555,15.21288 71.93529,42.36262 6.01551,11.44515 8.74323,23.42097 8.72247,38.29514 -0.0212,15.1945 -2.11147,24.55425 -8.38027,37.52496 -6.41613,13.27558 -20.74452,27.8477 -33.74876,34.32286 -17.02873,8.47904 -38.67285,11.2693 -56.78049,7.31986 z"
       id="path4530"
       inkscape:connector-curvature="0" />
  </g>
</svg>
